Coordinates
version=1
nRows=26
nColumns=24
inDegrees=yes

Units are S.I. units (second, meters, Newtons, ...)
Angles are in degrees.

endheader
time	pelvis_tilt	pelvis_list	pelvis_rotation	pelvis_tx	pelvis_ty	pelvis_tz	hip_flexion_r	hip_adduction_r	hip_rotation_r	knee_angle_r	ankle_angle_r	subtalar_angle_r	mtp_angle_r	hip_flexion_l	hip_adduction_l	hip_rotation_l	knee_angle_l	ankle_angle_l	subtalar_angle_l	mtp_angle_l	lumbar_extension	lumbar_bending	lumbar_rotation
      1.22050000	     -0.69341184	      7.05954293	     -5.67691243	      0.22807259	      1.00902030	      0.27693609	     16.46443324	     -9.28134760	     -0.42256070	    -67.30590610	     -4.93818167	    -11.09934867	      7.62616900	      6.95567780	     11.94106520	      4.71002603	    -11.04176781	      4.38720408	    -15.13052674	     -0.76226712	    -12.53933742	     -1.90326956	     -0.84043321
      1.22466667	     -0.69220589	      6.91546406	     -5.81829919	      0.23313595	      1.00973301	      0.27692049	     16.98116478	     -9.02135673	     -0.31881873	    -66.95449447	     -4.24303531	    -11.20845521	      7.56691188	      6.43375887	     11.81406381	      4.71811154	    -10.63826958	      4.39850684	    -15.19745791	     -0.80885099	    -12.54507150	     -1.67335182	     -1.06026420
      1.22883333	     -0.70350343	      6.77224104	     -5.95616560	      0.23815006	      1.01040019	      0.27692102	     17.50223844	     -8.74911146	     -0.21023229	    -66.55238615	     -3.54010331	    -11.41165502	      7.53952829	      5.94714230	     11.68340424	      4.68096882	    -10.27470055	      4.41819246	    -15.19846272	     -0.83411369	    -12.56900268	     -1.44896212	     -1.15053299
      1.23300000	     -0.69182637	      6.60775268	     -6.08968060	      0.24320269	      1.01111390	      0.27692433	     17.96501373	     -8.45436765	     -0.11173667	    -66.06630089	     -2.85139522	    -11.52267143	      7.46746217	      5.41180352	     11.53407860	      4.67017046	     -9.87114930	      4.43385414	    -15.22258355	     -0.89055630	    -12.59834098	     -1.19445902	     -1.33583457
      1.23716667	     -0.70616395	      6.43074422	     -6.21481910	      0.24822331	      1.01179024	      0.27694371	     18.43656204	     -8.13117100	     -0.01014382	    -65.51695497	     -2.16333553	    -11.69138361	      7.41533618	      4.91754914	     11.36636769	      4.63775124	     -9.49684018	      4.44923823	    -15.20851548	     -0.93256641	    -12.62123558	     -0.94214000	     -1.44858881
      1.24133333	     -0.69844939	      6.27235667	     -6.33502939	      0.25327013	      1.01244394	      0.27694636	     18.86952786	     -7.83907834	      0.07963008	    -64.91727847	     -1.46679015	    -11.80515535	      7.32969800	      4.39062440	     11.22340207	      4.60560711	     -9.10106185	      4.46813010	    -15.20279432	     -0.99754763	    -12.64651031	     -0.68856410	     -1.61743364
      1.24550000	     -0.71028084	      6.09267244	     -6.44554362	      0.25829450	      1.01307116	      0.27695569	     19.29801697	     -7.51190084	      0.17105235	    -64.24937448	     -0.78223217	    -11.94281090	      7.24046978	      3.88943215	     11.05478976	      4.57020495	     -8.72059887	      4.48618701	    -15.17973317	     -1.06409160	    -12.66563544	     -0.41825990	     -1.75352734
      1.24966667	     -0.74055529	      5.93068437	     -6.54989097	      0.26330057	      1.01363066	      0.27698084	     19.73637144	     -7.19680390	      0.26810408	    -63.53754230	     -0.08759711	    -12.09130255	      7.19867388	      3.42138890	     10.90171649	      4.51267497	     -8.36149713	      4.49221849	    -15.14580195	     -1.09881473	    -12.66797887	     -0.18414764	     -1.84038897
      1.25383333	     -0.72072421	      5.74797424	     -6.65564712	      0.26833323	      1.01426030	      0.27700618	     20.08878991	     -6.86758389	      0.35967470	    -62.74738402	      0.55491318	    -12.16633218	      7.09640384	      2.87088361	     10.73396958	      4.49019055	     -7.95122069	      4.51655009	    -15.10354574	     -1.17163549	    -12.72287153	      0.09183606	     -2.02705277
      1.25800000	     -0.71998905	      5.56607585	     -6.75047652	      0.27334955	      1.01482882	      0.27703548	     20.44379699	     -6.53410258	      0.45007477	    -61.90645421	      1.19831662	    -12.27142726	      6.99228266	      2.35309878	     10.56398219	      4.44717700	     -7.56463344	      4.52542058	    -15.06170347	     -1.24470678	    -12.75922417	      0.35668311	     -2.16794846
      1.26216667	     -0.72358588	      5.38465932	     -6.83582903	      0.27837461	      1.01536415	      0.27706927	     20.78183314	     -6.20059584	      0.53748500	    -61.00820882	      1.80380842	    -12.37698399	      6.86963798	      1.83887703	     10.39464494	      4.41027912	     -7.18107943	      4.54074256	    -15.00927610	     -1.32664806	    -12.79222921	      0.62273208	     -2.31460070
      1.26633333	     -0.74947307	      5.21638095	     -6.91268137	      0.28337019	      1.01582401	      0.27710943	     21.13146753	     -5.87613403	      0.63012445	    -60.06718447	      2.41181182	    -12.47560532	      6.80726688	      1.36621142	     10.23591901	      4.34980193	     -6.82602793	      4.53061195	    -14.96069392	     -1.37101877	    -12.80076974	      0.85721373	     -2.41000729
      1.27050000	     -0.73387096	      5.05447262	     -6.98854221	      0.28840892	      1.01630339	      0.27712851	     21.41638197	     -5.57403608	      0.71505795	    -59.07087581	      2.92858536	    -12.56254139	      6.65417508	      0.81797140	     10.09200242	      4.33373780	     -6.41132495	      4.54966162	    -14.89549331	     -1.46681403	    -12.85758352	      1.11243530	     -2.61432529
      1.27466667	     -0.77969498	      4.89705604	     -7.05190180	      0.29341116	      1.01664355	      0.27717545	     21.75467403	     -5.26152027	      0.80815235	    -58.03709451	      3.45811005	    -12.63844861	      6.58835310	      0.36869278	      9.94246442	      4.27125128	     -6.06157719	      4.53761120	    -14.84316161	     -1.51036969	    -12.83702076	      1.33817284	     -2.70032702
      1.27883333	     -0.78785803	      4.73565785	     -7.11126781	      0.29844368	      1.01703432	      0.27721458	     22.02280932	     -4.95518089	      0.89469502	    -56.93419225	      3.90867780	    -12.72286918	      6.51202993	     -0.13842989	      9.79462251	      4.22607629	     -5.68079449	      4.53191593	    -14.77344913	     -1.55758079	    -12.86246751	      1.57485573	     -2.83219797
      1.28300000	     -0.72968913	      4.57627070	     -7.16935322	      0.30348600	      1.01745531	      0.27724886	     22.20362695	     -4.66893208	      0.96922829	    -55.78751255	      4.27011087	    -12.83216874	      6.36867492	     -0.73713488	      9.65796131	      4.20892836	     -5.25818815	      4.54861825	    -14.69283192	     -1.63859191	    -12.97089735	      1.81988479	     -3.03917755
      1.28716667	     -0.77538501	      4.43877085	     -7.21101974	      0.30851197	      1.01768099	      0.27728527	     22.48577465	     -4.38992469	      1.05579774	    -54.60897914	      4.65660901	    -12.90503312	      6.29432385	     -1.18897799	      9.53107454	      4.15388673	     -4.90481603	      4.52187933	    -14.62500611	     -1.68187146	    -12.94960759	      2.02681714	     -3.14172878
      1.29133333	     -0.78660008	      4.30644182	     -7.24842605	      0.31355758	      1.01792296	      0.27732834	     22.70905149	     -4.12687218	      1.13527744	    -53.37754553	      4.94475346	    -12.99973431	      6.20265424	     -1.69050175	      9.41309871	      4.11764990	     -4.52670742	      4.51040211	    -14.54576030	     -1.73120483	    -12.96517416	      2.23236895	     -3.29613495
      1.29550000	     -0.78524043	      4.18646145	     -7.28123061	      0.31860686	      1.01812736	      0.27736563	     22.90753100	     -3.88510843	      1.20982943	    -52.11101655	      5.18308291	    -13.10355651	      6.10685657	     -2.20904643	      9.31042472	      4.08181677	     -4.13800762	      4.49455176	    -14.46134819	     -1.78077691	    -12.99869315	      2.42692636	     -3.45901752
      1.29966667	     -0.78718738	      4.05684721	     -7.30490193	      0.32367441	      1.01830167	      0.27739872	     23.08276274	     -3.63925017	      1.27238044	    -50.79137172	      5.36557476	    -13.21411498	      6.00703428	     -2.72415226	      9.19606138	      4.04070979	     -3.75485871	      4.47352745	    -14.37474905	     -1.83012066	    -13.03563227	      2.62823156	     -3.62312067
      1.30383333	     -0.78466487	      3.95649692	     -7.32718079	      0.32873600	      1.01841983	      0.27743987	     23.24642812	     -3.42688789	      1.34391474	    -49.44264451	      5.49874625	    -13.32936668	      5.90312786	     -3.24071159	      9.11339491	      4.00623508	     -3.37046592	      4.45416941	    -14.28138268	     -1.87889374	    -13.06231775	      2.79705210	     -3.79197915
      1.30800000	     -0.74071571	      3.86791646	     -7.35109566	      0.33380532	      1.01854077	      0.27748361	     23.35398133	     -3.23872706	      1.41162952	    -48.06039066	      5.54633946	    -13.48267184	      5.74492708	     -3.81242208	      9.04848440	      3.98348762	     -2.96236275	      4.46288545	    -14.18027723	     -1.94847976	    -13.14244845	      2.94179602	     -4.00010924
      1.31216667	     -0.78660091	      3.78213147	     -7.35798781	      0.33888065	      1.01851375	      0.27752395	     23.53615407	     -3.04695187	      1.46796353	    -46.63574547	      5.61677044	    -13.55388752	      5.63742302	     -4.26493740	      8.97302356	      3.92315825	     -2.60008603	      4.41858312	    -14.08412298	     -1.99553429	    -13.11635675	      3.08556646	     -4.13419926
      1.31633333	     -0.78151150	      3.70634848	     -7.36939715	      0.34397307	      1.01850899	      0.27757292	     23.64696626	     -2.87594706	      1.52607186	    -45.17276178	      5.60418214	    -13.67527826	      5.51727642	     -4.78384790	      8.91489250	      3.88013131	     -2.21498682	      4.39509328	    -13.97321180	     -2.04453948	    -13.14762819	      3.22594637	     -4.30411277
      1.32050000	     -0.80220685	      3.65689589	     -7.37873018	      0.34905513	      1.01840547	      0.27760313	     23.77942938	     -2.73471812	      1.59076678	    -43.68647431	      5.56995513	    -13.75751774	      5.41336616	     -5.25910116	      8.88342866	      3.82907567	     -1.85603965	      4.36231141	    -13.85912923	     -2.08508353	    -13.12946288	      3.34655665	     -4.44971737
      1.32466667	     -0.81808532	      3.59965785	     -7.38651269	      0.35416154	      1.01828271	      0.27766635	     23.88284990	     -2.58888777	      1.63835066	    -42.15782738	      5.47202863	    -13.86007958	      5.30286183	     -5.74985731	      8.84122486	      3.76908293	     -1.47925860	      4.34095544	    -13.73886649	     -2.12587930	    -13.13990993	      3.45524462	     -4.61310749
